# xmcd
#
# Track frame offsets:
#	150
#	10830
#	26564
#	42688
#	55118
#	70033
#	79734
#	90756
#	102289
#	111641
#	124295
#	136338
#	146947
#	155082
#	166536
#	179179
#	190896
#	204096
#	214711
#	228314
#
# Disc length: 3254 seconds
#
# Revision: 0
# Processed by: cddbd v1.5.2PL0 Copyright (c) Steve Scherf et al.
# Submitted via: EZCDAudioConverter 6.0.0.1
#
DISCID=190cb414
DTITLE=Skiffle Artists - Skiffle - The Essential Recordings 2
DYEAR=1900
DGENRE=blues country bluegrass
TTITLE0=Chas McDevitt Skiffle Group with Nancy Whiskey - Green Back Dollar
TTITLE1=The Peggy Seeger Group - Bring A Little Water Sylvie
TTITLE2=Johnny Parker's Washboard Band - No. 69
TTITLE3=The Chris Barbers Skiffle Group - Where Would I Go
TTITLE4=Beryl Bryden's Backroom Skiffle - Casey Jones
TTITLE5=The Avon Cities Skiffle with Ray Rush - This Little Light Of Mine
TTITLE6=The Vipers Skiffle Group - Pick A Bale Of Cotton
TTITLE7=The City Ramblers Skiffle Group with Ramblin' Jack Elliott - Midnight 
TTITLE7=Special
TTITLE8=Clyde Valley Stompers - Open Up Them Pearly Gates
TTITLE9=Betty Smith Skiffle Group - Double Shuffle
TTITLE10=Alexis Korner's Skiffle Group - I Ain't Gonna Worry No More
TTITLE11=Johnny Duncan and The Bluegrass Boys - Get Along Home Cindy
TTITLE12=The Peggy Seeger Group - Sail Away Lady
TTITLE13=The Ken Colyer Skiffle Group - This Train
TTITLE14=Lonnie Donegan - Jack O' Diamonds
TTITLE15=The Vipers Skiffle Group - Railroad Steamboat
TTITLE16=Alexis Korner Breakdown Group - Roundhouse Stomp
TTITLE17=Johnny Duncan and The Bluegrass Boys - Footprints In The Snow
TTITLE18=The City Ramblers Skiffle Group - Boodle Am Shake
TTITLE19=The Chris Barbers Skiffle Group - Doin' My Time
EXTD=
EXTT0=
EXTT1=
EXTT2=
EXTT3=
EXTT4=
EXTT5=
EXTT6=
EXTT7=
EXTT8=
EXTT9=
EXTT10=
EXTT11=
EXTT12=
EXTT13=
EXTT14=
EXTT15=
EXTT16=
EXTT17=
EXTT18=
EXTT19=
PLAYORDER=
